<?xml version="1.0" encoding="UTF-8"?>
<svg version="1.1" viewBox="0 0 2048 1153" width="666" height="375" xmlns="http://www.w3.org/2000/svg">
<path transform="translate(926,226)" d="m0 0h208l59 59-1 8-11 23-5 15-4 17-2 15-1 22 2 23 5 23 5 13 8 20 6 27 1 8v28l-6 27-6-1-21-8-24-7-36-7-31-3-20-1h-49l-30 2-26 3-37 8-30 10-6 3h-3l-5-14-3-19v-11l2-18 5-23 6-18 7-19 4-14 2-12 1-11v-25l-2-20-4-18-7-19-9-20-2-6zm224 238m-9 13 1 3 21 6 9 1-4-3-24-7zm-111 33-15 4-12 5 3 1 15-3 10-3h8l11 3 9 3v-2l-8-5-12-3zm106 1-13 4-7 3v1h7l13-4h8l12 4 3-1-6-4-10-3zm-235 4-8 3 4 1 7-1 12 2-1-2-9-3z" fill="#7FC6EB"/>
<path transform="translate(1023,287)" d="m0 0h18l1 1 1 7 1 1h6l1-4 4-4h20l1 1 1 7 6-1 7-5 4 1v2h7l10 3v10l-3 13-5 6-5 1 9 30 2 5 1 6 3 11 5 16 3 12 4 9 2 9 4 15 4 11 2 5v3l11 2 2 3h-7l8 2v3l-15 3h-8v-2h-2v2l-32 7-9 1v1h-50l-16-2v-2l-27-3-15-2-25-2v-1h-8l-5 2-21 2h-6l1-6 5-5 12-3 4-17 15-50 7-19 5-20 2-10 4-13-5-3-5-8-3-6-1-5v-9l2-3 16-3 4-1 12 6v-7l1-2h22l6 7h5l1-7z" fill="#B38F23"/>
<path transform="translate(961,348)" d="m0 0 1 4-5 20-8 22-14 47-5 17-12 4-4 4-2 6 27-3 5-2h9v1l32 3 22 3 23 2-4 2 9 1h40v-1l19-1 28-6h4v-2h2v2l20-3 3-2 2-1 2 3 21 5 12 5 4 1 3 12 1 8v28l-6 27-6-1-21-8-24-7-36-7-31-3-20-1h-49l-30 2-26 3-37 8-30 10-6 3h-3l-5-14-3-19v-11l2-18 2-11 2-2 24-4 15-2 3-9 6-5 7-2 4-5 12-36 11-35 8-26zm180 129 1 3 21 6 9 1-4-3-24-7zm-111 33-15 4-12 5 3 1 15-3 10-3h8l11 3 9 3v-2l-8-5-12-3zm106 1-13 4-7 3v1h7l13-4h8l12 4 3-1-6-4-10-3zm-235 4-8 3 4 1 7-1 12 2-1-2-9-3z" fill="#179A91"/>
<path transform="translate(1218,301)" d="m0 0 16 1 1 6-8 10-1 2 3-1 7-8 7-1 5 7v5l-7 8-1 4 4 2 5 6 1 7 6-4h19l-1 4-6 11-4 5-1 2 7 2 3 6-1 5-10 4 4 5 5 3 2 6 4-5 20-5 1 2-2 5-2 10-4 5-1 3 7 1 5 5 2 4-10 7-6 2h-7l-5-2-2-3v-5-4l11-12 2-4-5 5-9 11-2 1-5-10v-3h-2l7 16 4 11 3 6 3 5 1 4 1-8 7-6 4 1 4 2 5 3-1 5-5 5-1 2 7-3h6l2 8 1 5-6 3h-8-2l4 5 1 5-6 5-6 1-2-1v13l7-6 9-6h3l2 12v8l-3 5 10-1 8 6 9 4-1 3-16 9-7 2 4 7-1 12-3 1-10-4-2 6-1 7-7 7v2l7 2 3 5 4 6 4 5v2l-10 2h-17l1 6-6 11-4-1-10-9-5-10 1-9 3-2 3 12 1 2-2-16 9 2 19 6v-2l-10-2-17-6 2-5 9-8 3-3-10 8-7 7-9 12-9 10-2 4-8-4 2-5 4-4h2l2-4 7-9 1-3-7 9-2 1-5-12-6-12-2-1 8 15 3 7v4h-17l16 2-4 5-6 3-6-1-19-7-2-2v-7l5-3 5-4h8l-2-6 1-11 1-10 3-1 8 7 7 6 2 3 4-1 5-4 5-2 5 1v10l4-4 8-16 6-16 4-11-4-1-3-11 1 5v10l-6-1-19-9 4 3 15 7 5 2-2 4-12 9 6-3 7-5h2l-1 7-8 8-8 3-6 1h-16l1-4 3-6 2-6 6-5 1-2-8-2-3-4-7-15h20l7 1 1-9 4-5-16 4h-6l2-15 4-5 3-3h-6l-5-5-4-5-5-5-1-3 9-2 5-1h12v-7l4-9 3-1 11 9-2-6-4-7-7-4h-8l-6-2 5 4 1 8-9 6-4-1-3-4v-9l1-2h-2l-2 5-7 4-6-1-4-7v-5l5-3 9-1v-2h-8l-3-4-2-15v-8l2-4-7 1-9-6-6-2 1-3 8-5 11-4-2-4-1-1 1-9 1-1 8 1 6 1-3-7-8-2-5-5-9-8 2-6 4-6 6 2 6 10 2 1-6-10v-8zm0 25v2l4 2 1-4zm15 5m1 1 1 3 1-3zm-9 19 5 5-2-4zm14 4 1 3zm21 0-13 11h3l9-7 3-2v-2zm-20 6-3 9-2 9-7 10 1 4 2 6 2-2v-7l3-4h7l7 2 1 6-8 8 2 1 6-4 4-6 2-8-9-4-3-7-1-5-2-1-1-7zm-17 1-11 1-3 2 3 1h21v-3l-2-1zm10 4m13 1m-14 1m-1 1-5 6 2 2 4-6zm45 54m3 1 3 2 4-1v-1zm-12 15 1 5 2-2zm-23 10 1 2 14 4 13 3 4-1-18-5-10-3zm39 15-1 3 2 4 1-6zm-21 3-4 4 1 2 4-3zm14 6-1 1h-9l-2 4 7 7 7 11h1l1-6v-16zm14 28m-1 1-8 15-6 20-3 7v3l9-2 9-1v-3l-3-3h-2l-2-5-1-7 5 5 5 6h2l-2-4-6-9v-4h-2l6-15zm8 16-8 1v1h14l9-1v-1z" fill="#1A673F"/>
<path transform="translate(669,719)" d="m0 0h23l17 3 16 8 9 7 8 8 8 15 3 12 1 11v14l-2 16-4 11-7 10-10 10-15 9-11 4-12 2h-29l-16-4-15-8-10-9-6-8-7-15-2-10-1-20 2-16 5-13 6-10 9-10 10-7 15-7zm12 37-13 3-8 7-4 8-2 15 2 16 4 8 8 7 5 2 9 1 8-2 8-4 6-7 3-10v-19l-3-11-6-8-7-4z" fill="#010201"/>
<path transform="translate(1237,719)" d="m0 0h21l15 3 14 8 8 8 8 13 6 16 2 8v28h-84l6 10 1 3 6 2 6 3 5 1h13l11-2 15-5 3 1 7 20 4 8-1 4-15 7-14 3-9 1h-28l-15-3-16-8-9-7-8-9-5-8-5-15-2-10v-18l3-14 6-14 7-10 5-6 12-9 12-6zm5 37-9 5-6 10-1 5h41l-1-7-5-8-6-4-3-1z" fill="#010101"/>
<path transform="translate(497,670)" d="m0 0h116l1 2 3 28v5l-2 1h-73v41h53l2 2 3 26v8l-1 1h-56l-1 72-1 1h-44l-1-1v-185z" fill="#020504"/>
<path transform="translate(1485,719)" d="m0 0h22l14 3 14 8 9 10 7 14 2 13v89l-2 1h-19l-4-4-4-5-6 2-10 6-12 3h-24l-12-3-10-7-8-9-4-10-1-6v-18l3-12 9-10 9-6 9-3 11-2h29l-6-12-7-2h-14l-20 4-6 2-4-8-7-20-2-5 8-4 17-6zm-1 82-5 3-4 5-1 5 4 7 7 3 11-2 9-6 3-5v-9l-1-1z" fill="#010202"/>
<path transform="translate(1029,719)" d="m0 0h22l14 3 14 8 9 10 7 14 2 16v86l-2 1h-19l-4-4-4-5-6 2-10 6-12 3h-24l-12-3-10-7-8-9-4-11-1-5v-18l3-12 9-10 9-6 9-3 11-2h29l-4-10-8-4h-15l-20 4-4 2h-3l-5-14-6-16-1-4 25-9zm-2 82-7 6-2 4 1 6 6 6 7 1 10-3 9-6 1-2v-12z" fill="#010202"/>
<path transform="translate(1015,577)" d="m0 0h29l32 2 39 6 36 9 24 8 24 10v3l-13 1-15 4-8 4h27l16 3 23 8 9 4 1 5-5-1-20-8-19-5-5-1h-21l-9 2-1-3 2-19-19 10-15 5-10 2-34 3-23 6-16 8-12 8-6-1-10-7-17-8-23-6-7-1-26-2-15-3-21-9-11-6 2 14v9l-8-2-14-1-19 3-15 4-17 7-5 1 1-4 16-7 19-6 11-2h24l4 1-3-3-10-4-17-3-7-1v-2l15-6 14-6 31-9 24-6 39-6zm-111 22v3l14 8 11 5 12 3 8 1 21 1 25 5 11 4 15 8 7 5 5-1 11-7 15-7 19-5 14-2 26-2 15-4 19-9 4-3v-2h-10l-9 6-19 6-5 1-31 2-16 3-18 7-16 9-3 1-15-9-20-8-17-3-32-2-24-8-10-6z" fill="#169A90"/>
<path transform="translate(769,342)" d="m0 0 7 1 10 5 6 5 7 9 7 14v2h2l1-7 10-9 8-4 17-5 7-2-2 4-8 8-14 11-10 8-6 8-7 19-3 8 14-7 27-3h4l-2 4-14 10-17 10-11 7-13 12-4 5-4 18-2 24h2l1-8 7-14 7-8 8-4 14-4 15-2-1 4-15 12-16 10-8 7-7 8-4 4 2 13 6 18 1 2 4-10 6-9 6-7 8-7 13-10h3l-2 5-10 14-12 20-6 13-1 9h2l1-9 6-14 12-18 9-13 2-4h1v27l-2 15-6 9-6 5-11 4h-5l7 9 7 8 3 3 1-8 4-10 12-20 3-1-1 8-6 21-2 19 1 2 2-18 4-13 4-18 3 1 8 22 1 5v7l-4 10-15 6-6 4-13 4-6 1h-14l-14-5-13-9-10-9-8-10 3-1 10 5 15 5 19 5 17 8-8-6-13-5-25-7-16-8 1-2 17-2 8-1h11l-5-9v-2l-9-1-13-7-13-12-7-8-9-9-10-7-5-3 1-2 17 1 12 3 14 7 10 9 1 1-1-23-6-3-10-10-5-8-13-28-7-11-4-4v-2l10 3 11 6 10 8 7 8 7 14 1 4 2-7 3-12 2-4-2-10-7-20-16-28-6-12 4-1 10 7 8 6 8 7 4 6 4 12 1 16 13-30 2-5v-3l-5-3-8-9-14-28-8-9z" fill="#1A673E"/>
<path transform="translate(1319,723)" d="m0 0h106l2 20v6l-7 10-14 18-9 12-10 13-7 9-7 10h55l4 32v3l-2 1h-110l-3-8-4-13 1-5 9-11 8-11 13-17 12-16 10-13 1-2-43-1-2-6-3-25z" fill="#020202"/>
<path transform="translate(916,687)" d="m0 0h8l1 40h26l3 1 5 24 1 10h-36l1 43 3 10 5 5 4 2h13l7-3h4l7 15 5 12 1 3-7 6-13 4-6 1h-20l-14-3-9-4-11-7-8-9-6-13-1-7v-55h-19l-1-7v-27l1-1h18l1-34 4-2z" fill="#010202"/>
<path transform="translate(1027,364)" d="m0 0h13l11 3 8 10 3 1 24 2 20 3v1h-12l-31-3 3 13v8l2 17v3l16 1 5 1-3 2v12l6 2v1h-7l-2-2v-8l-1-5-13-2 1 12 2 4h-2l1 9 29 3 14 1 6 2 17 1v2l11 2 2 3h-7l8 2v3l-15 3h-8v-2h-2v2l-32 7-9 1v1h-50l-16-2v-2l-27-3-15-2-25-2v-1h-8l-5 2-21 2h-6l1-6 5-5 12-3 1-2h9l11-2 3-1 9-1 32-4 1-1 2-14v-11l1-3v-12l1-2 2-20 1-3-32 3h-9l2-2 19-3 4-1 17-1 4-2 6-7 3-3z" fill="#4E3019"/>
<path transform="translate(1014,146)" d="m0 0h28l6 1v14l8-1 8-10 3-3 33 4 1 1v12l17-9 5-1 29 7 2 1v19l-4 14-1 1h-98l-139-1-6-15v-18l16-4 15-4h6l5 4 12 6v-13l28-3h7l7 8 3 4 9 1-1-14z" fill="#4D341E"/>
<path transform="translate(926,226)" d="m0 0h208l59 59-1 8-11 23-4 9-6-1-9-10-10-16-7-9v-2l-4-2-11-12-7-7-10-8-9-6-5-4-15-9-13-6-9-2-8-1-35-1-20 1-12 3-8 4-11 6-11 7-12 8-9 7-7 7h-2l-1 3h-2l-1 3h-2l-2 4-13 16-10 14-7 10-3 2-4-1-4-9-11-24-1-4z" fill="#3FB7E9"/>
<path transform="translate(1150,663)" d="m0 0h12v193l-10 1h-33l-1-1v-191z" fill="#020201"/>
<path transform="translate(925,213)" d="m0 0h212l5 2 68 68-1 6-8 14-7 16-7 23-3 16-1 12v22l2 18 5 19 5 13 7 19 5 17 2 16 1 14v14l-2 18-4 13-4 8-8-4 2-4 4-13 2-15v-22l-3-25-6-21-7-17-6-17-3-18-1-11v-26l3-24 4-15 7-19 11-22-2-5-16-16-2-1v-2l-3-1-7-8-32-32-4-1h-208l-8 7-7 8h-2v2l-8 7-39 39 1 5 8 15 6 15 6 21 4 20 1 21-1 17-5 23-9 27-8 23-5 25v30l5 21 3 6v2l-7 4h-2l-4-13-4-17-1-18 2-22 6-26 6-16 7-20 5-21 2-14v-27l-4-24-6-21-7-16-9-17-2-4 69-69z" fill="#030908"/>
<path transform="translate(838,722)" d="m0 0 3 2 7 25 2 10-1 1-14 2-11 4-11 6-3 2-1 66v16l-4 1h-41l-1-1v-133h23l7 8 4 6 5-1 11-6 16-6z" fill="#010302"/>
<path transform="translate(1218,301)" d="m0 0 16 1 1 6-8 10-1 2 3-1 7-8 7-1 5 7v5l-7 8-1 4 4 2 5 6 1 7 6-4h19l-1 4-6 11-4 5-1 2 7 2 3 6-1 5-10 4 4 5 5 3 2 6 4-5 20-5 1 2-2 5-2 10-4 5-1 3 7 1 5 5 2 4-10 7-6 2h-7l-5-2-2-3v-5-4l11-12 2-4-5 5-9 11-2 1-5-10v-3h-2l7 16 3 9h-3l-6-11-7-4h-8l-6-2 5 4 1 8-9 6-4-1-3-4v-9l1-2h-2l-2 5-7 4-6-1-4-7v-5l5-3 9-1v-2h-8l-3-4-2-15v-8l2-4-7 1-9-6-6-2 1-3 8-5 11-4-2-4-1-1 1-9 1-1 8 1 6 1-3-7-8-2-5-5-9-8 2-6 4-6 6 2 6 10 2 1-6-10v-8zm0 25v2l4 2 1-4zm15 5m1 1 1 3 1-3zm-9 19 5 5-2-4zm14 4 1 3zm21 0-13 11h3l9-7 3-2v-2zm-20 6-3 9-2 9-7 10 1 4 2 6 2-2v-7l3-4h7l7 2 1 6-8 8 2 1 6-4 4-6 2-8-9-4-3-7-1-5-2-1-1-7zm-17 1-11 1-3 2 3 1h21v-3l-2-1zm10 4m13 1m-14 1m-1 1-5 6 2 2 4-6zm45 54m3 1 3 2 4-1v-1z" fill="#1A6840"/>
<path transform="translate(945,310)" d="m0 0 5 1 5 10 3 3 10 4-4 14-11 34-10 33-12 37-4 8-5 4-9 1-7 3-3-1v-2h-2l-4-12-1-1v-16l1-17 2-10 1-12 6-17 4-10 9-19 6-11 8-13 6-6h2l2-4z" fill="#B9DCF0"/>
<path transform="translate(1037,344)" d="m0 0h39l24 3 4 4 1 6-1 1h-11l11 1 3 3 3 5 3 11 5 16 3 12 4 9 2 9 4 15 4 11 2 6-6 1-16-2-2-1-13-1-26-3-3-1-1-2v-7-2l-1-2v-12h9l5 2 1 5v8h2l-1-1v-12l1-1-2-1-16-2-1-3-2-17v-9l-2-12 24 1h3l-12-2-4-3-1 1h-9l-5-2-4-6 2-2 15 1h4l3-1-21-2-3-1-1-6 2-3h14l2-2-35-2-3-3 1-4z" fill="#B38F24"/>
<path transform="translate(1023,287)" d="m0 0h18l1 1 1 7 1 1h6l1-4 4-4h20l1 1 1 7 6-1 7-5 4 1v2h7l10 3v10l-3 13-5 6-5 1 9 30 2 5v3h-2l-1-4-18-2v-1h16l-1-6-3-3-24-3-17-1-6-1v-1l26 1 21 2-4-12-1-6-3-3-15-3-24-3h-30l-38 4-11 2-2 2-1 7 7-1 22-2-1 2-17 2-2 8-1-4h-2v-2l-7 2-2 7 29-3h17l-3 2-12 1-4 1-16 1-13 2-4 6-1-3 2-10 4-13-5-3-5-8-3-6-1-5v-9l2-3 16-3 4-1 12 6v-7l1-2h22l6 7h5l1-7z" fill="#B38F24"/>
<path transform="translate(1015,577)" d="m0 0h29l32 2 14 2 2 2h-17l-34-2h-30l-40 3-21 4-27 5-10 4-9 2v3l5 2 15 8 12 4 13 2 21 1 25 5 11 4 15 8 7 5 5-1 11-7 15-7 19-5 14-2 26-2 15-4 19-9 4-4-7-1-9-4-6-2-16-3-23-5v-2h9l24 5 26 7 21 7 24 10v3l-13 1-15 4-8 4h27l16 3 23 8 9 4 1 5-5-1-20-8-19-5-5-1h-21l-9 2-1-3 2-19-19 10-15 5-10 2-34 3-23 6-16 8-12 8-6-1-10-7-17-8-23-6-7-1-26-2-15-3-21-9-11-6 2 14v9l-8-2-14-1-19 3-15 4-17 7-5 1 1-4 16-7 19-6 11-2h24l4 1-3-3-10-4-17-3-7-1v-2l15-6 14-6 31-9 24-6 39-6z" fill="#050A08"/>
<path transform="translate(1018,151)" d="m0 0h27v15h26v-14l26 1 1 15 25 4v-13l9 1 18 4 1 1v16l-3 8-4 1-2-13h-7l-2 10-15-1-24-3-4-1-1-14-8 1-1 11h-17l-27-2-2-9-1-1h-7l-2 10-10 1-32 1-2-10h-8l-2 11-9 2-23 3h-8l-2-10h-8l-1 13-1 1h-5l-2-2-1-11v-10l3-4 24-5 1 1v13l25-4 1-14 11-2h16l1 2v12l24-1 1-13z" fill="#D9AB16"/>
<path transform="translate(926,226)" d="m0 0h170v1l-72 1-5 1-20 1-12 3-8 4-11 6-11 7-12 8-9 7-7 7h-2l-1 3h-2l-1 3h-2l-2 4-13 16-10 14-7 10-3 2-4-1-4-9-11-24-1-4z" fill="#42B7E9"/>
<path transform="translate(956,376)" d="m0 0 1 2-1 5h8v1l14-1 13-1h12l-2 23-1 6v8l-1 6v8l-2 14-2 2-27 3-9 2h-6l-6 2-7 1h-9l1-9 14-47 7-21z" fill="#B18D23"/>
<path transform="translate(1115,319)" d="m0 0h3v2l4 2 11 19v2h2l7 12 6 14 4 8 2 17 4 36v13l-2 12-2 2-15-3-11-33-5-16-5-20-4-10-5-17-6-18-2-8v-5l11-7z" fill="#A6D5EE"/>
<path transform="translate(1037,344)" d="m0 0h39l24 3 4 4 1 6-1 1h-11l11 1 3 3 3 5 3 11 5 16 2 12-3-3-24-5-11-1-1 7-2-1-1-6-2-1-9-1 1 11 8 1-1 3h-7l1 11 13 1v1h-10l-4-1-1-3-2-17v-9l-2-12 24 1h3l-12-2-4-3-1 1h-9l-5-2-4-6 2-2 15 1h4l3-1-21-2-3-1-1-6 2-3h14l2-2-35-2-3-3 1-4z" fill="#AB8823"/>
<path transform="translate(945,310)" d="m0 0 5 1 5 10 3 3 7 3-1 2-4-1-5-3-5 1-6 10-7 10-7 12-8 21-3 8-5 21-1 13v15l2 13 1 4h2l-1 3-10 6-4-1v-2h-2l-4-12-1-1v-16l1-17 2-10 1-12 6-17 4-10 9-19 6-11 8-13 6-6h2l2-4z" fill="#A5D4ED"/>
<path transform="translate(717,934)" d="m0 0 31 1 9 3 7 7 3 8v7l-4 8-5 6-3 3 5 8 11 19v3h-14l-5-8-9-16-1-3h-13v26l-1 1h-13l-1-1v-71zm12 12v22h12l7-3 3-4v-8l-3-5-3-2z" fill="#020504"/>
<path transform="translate(1090,290)" d="m0 0 4 1v2h7l10 3v10l-3 13-5 6-5 1 9 30 2 5v3h-2l-1-4-18-2v-1h16l-1-6-3-3-24-3-17-1-6-1v-1l26 1 21 2-4-12-1-6-3-3-15-3-24-3h-30l-38 4-11 2-2 2-1 7 7-1 22-2-1 2-17 2-2 8-1-4h-2v-2l-7 2-2 7 29-3h17l-3 2-12 1-4 1-16 1-13 2-4 6-1-3 2-10 4-13-5-3-5-8-1-4 47-7 15-1h24l31 3 5 1h25l2-2-4-9-6-3-2 7h-7l-10-4 1-3 6-1z" fill="#4E3019"/>
<path transform="translate(1247,934)" d="m0 0 33 1 9 3 5 4 3 5 1 4v11l-4 8-6 5 2 6 11 20 3 6h-15l-12-21-4-6-12-1v28h-14zm14 12v21l1 1h11l7-3 3-5v-7l-4-6-2-1z" fill="#020303"/>
<path transform="translate(776,294)" d="m0 0 4 2 1 3v9l-2 3 12 3 5 5-3 3-7 1 5 9 6 12 9 6 4 2 2-6 2-3 1-9-1-6h-10l-5-3 1-4 10-5h2l-2-6v-7l2-6 2-1 8 7 3 6 9-4h8l-1 6-6 8-2 1 2 5 3 7v3h-6l-7-4-2 5-4 9 1 5-3 9-2 2-13 1-4-5-7-14-11-8-4-4v6l-3 1-4-3-1-5 1-2-11 4-5-1-1-3 3-5 4-3h2v-2l-5-2-5-5-1-4 2-1h7l9 4-1-3 3-7zm2 29v3l3-3z" fill="#BA9A39"/>
<path transform="translate(1200,934)" d="m0 0 13 1 1 3-1 47-4 10-7 8-12 5h-15l-10-4-7-7-5-10v-52h15v47l2 8 5 4 4 1h7l8-3 3-5 1-6 1-46z" fill="#020403"/>
<path transform="translate(1355,934)" d="m0 0h6l3 3 5 12 15 38 6 15v3l-10 2h-4l-4-12-2-4h-27l-6 15-1 1h-14l2-6 11-29 13-33 3-4zm1 20-4 9-5 15h18l-8-24z" fill="#020403"/>
<path transform="translate(1103,227)" d="m0 0h32l58 58-1 8-7 14-6 1-9-11-6-7-6-10-8-8v-2h-2l-7-8-10-10v-2l-5-2-1-3-5-2-10-9-4-4z" fill="#15ACE2"/>
<path transform="translate(1022,461)" d="m0 0h31l24 1 31 3 18 3v3l-32 7-9 1v1h-50l-16-2v-2l-27-3-15-2-25-2 1-3 45-4z" fill="#DEAF15"/>
<path transform="translate(636,934)" d="m0 0 31 1 10 4 6 8 2 5v10l-5 10-6 5-11 4-7 1h-9v25h-14v-72zm11 12v23h16l5-4 2-4v-7l-4-6-3-2z" fill="#030504"/>
<path transform="translate(952,934)" d="m0 0h38l2 1v10h-31v19h20l2 7-1 5h-21v19h35l2 5v7h-50l-1-6v-66z" fill="#020605"/>
<path transform="translate(799,934)" d="m0 0h42l2 4v7h-30v19h19l1 1v11h-20v19h34l1 1 1 10-1 1h-49l-1-72z" fill="#020404"/>
<path transform="translate(1102,327)" d="m0 0h2l1 3 6 3 5 11v2l3 1 12 23 6 15 4 19 2 16v10l-1 9-4 1 3 12 1 3h-3l-11-33-5-16-5-20-4-10-5-17-6-18-2-8v-5z" fill="#BADDF1"/>
<path transform="translate(926,226)" d="m0 0h16l8 1v2l-4 1-7 8h-2v2l-9 7-10 8-4 5h-2l-2 4-7 9h-2l-2 6h-2l-2 5-7 10h-2l-1 4-6 9-5-2-8-17 2-4z" fill="#14ACE2"/>
<path transform="translate(1067,934)" d="m0 0h58l2 2v9h-24v62h-14l-1-61-22-1v-10z" fill="#010505"/>
<path transform="translate(878,934)" d="m0 0h40l2 2v9h-29v20h19l1 1v10h-20v31h-13l-1-72z" fill="#010303"/>
<path transform="translate(1014,146)" d="m0 0h28l6 1v14l8-1 8-10 3-3 33 4-2 1-1 2-26-2v14l-3 1-23-1-1-10 1-5-27 1-1 13-1 1-24 1-1-1v-13h-16l-11 1v14l-1 1-20 3h-5l-1-13-24 5-2 3v22l-2-2-3-7v-18l16-4 15-4h6l5 4 12 6v-13l28-3h7l7 8 3 4 9 1-1-14z" fill="#473924"/>
<path transform="translate(1289,434)" d="m0 0 4 1 4 2 5 3-1 5-5 5-1 2 7-3h6l2 8 1 5-6 3h-8-2l4 5 1 5-6 5-6 1-4-3-1-7 1-6-1 2-1 3-2-1v5l-10 1-4-1-2-5-1-1v-5l5-6h5l-5-2-2-3v-6l7-6 4-1 3 5 1 4 1-8z" fill="#DFB015"/>
<path transform="translate(1236,385)" d="m0 0h7l7 3 2 6-4 5-3 3 5-3 2-2 5 5 1 3v11h-9l-6-2 5 4 1 8-9 6-4-1-3-4v-9l1-2h-2l-2 5-7 4-6-1-4-7v-5l5-3 9-1v-2h-8l-3-4-1-7 10-6h3l4 9v-8z" fill="#F4CA2B"/>
<path transform="translate(1057,288)" d="m0 0h18l1 1 1 10 9 3h7l1-7 7 3 3 4 2 7-3 2h-25l-22-4-21-2-20-1-3-1v-2l3-2 9-1v-7l1-2h14l1 1v7h11l5-1z" fill="#F2C82A"/>
<path transform="translate(1026,935)" d="m0 0h14v72h-14z" fill="#010101"/>
<path transform="translate(776,294)" d="m0 0 4 2 1 3v9l-2 3 12 3 5 5-3 3-9 1v2h-3v-2l-3 1-2 3v10l-3 1-4-3-1-5 1-2-11 4-5-1-1-3 3-5 4-3h2v-2l-5-2-5-5-1-4 2-1h7l9 4-1-3 3-7z" fill="#F1C628"/>
<path transform="translate(726,428)" d="m0 0 3 4 7 11 12 25 6 11 9 10 5 5v1l-10-1-13-5-8-7-7-12-2-6-1-23-2-11z" fill="#1A673E"/>
<path transform="translate(847,410)" d="m0 0 1 3-5 10-7 11-12 13-12 7-8 2h-15l1-4 9-10 13-9 18-10 11-8z" fill="#1A673F"/>
<path transform="translate(853,352)" d="m0 0h2l-1 10-6 17-8 11-8 7-9 4-5 1h-9l-1-2 8-14 7-7 12-9 11-9z" fill="#1A673E"/>
<path transform="translate(1122,410)" d="m0 0 3 4 1 7 5 18 4 11 2 6-6 1-16-2-2-1h-6l3-2v-5l-3-1v-2l-11-2v-1h10l9 1h10l2-1-1-6-10-3-13-3v-2h-8l-5-1v-1h15l-2-10-2-1v-2l-4-1h17l8 1z" fill="#B28E23"/>
<path transform="translate(748,378)" d="m0 0 3 3 5 12 13 21 5 11 4 14v7l-8-4-8-6-9-12-6-26v-17z" fill="#1A673E"/>
<path transform="translate(1167,600)" d="m0 0 6 1 26 11v3l-13 1-15 4-8 4h27l16 3 23 8 9 4 1 5-5-1-20-8-19-5-5-1h-21l-9 2-1-3 2-16 4-10z" fill="#453824"/>
<path transform="translate(718,499)" d="m0 0 4 2 6 4 10 9 7 7 7 8 8 7 12 7 6 2-2 2-9 2h-8l-14-5-10-9-6-10-5-15z" fill="#1A683F"/>
<path transform="translate(1050,465)" d="m0 0h58l18 3v3l-32 7h-12l-6-3-28-3-5-2 2-4z" fill="#F0C629"/>
<path transform="translate(1070,321)" d="m0 0 18 1 7 3 2 5v5l4 8-1 3-37-3-7-1-2-8 1-1 26-1-11-1z" fill="#BB9521"/>
<path transform="translate(833,462)" d="m0 0 1 4-4 10-8 11-7 8-10 7-6 2-14 1v-4l14-14 11-8 15-10z" fill="#1A673E"/>
<path transform="translate(1067,395)" d="m0 0h9l3 2 1 6 2-7 16 2 19 4 5 6v4h-21v1l-17-1-9-2 1-3h-8l-1-1-1-8z" fill="#DFB015"/>
<path transform="translate(1023,284)" d="m0 0h19l3 3 1 4 5-2 5-4h10l12 2 2 5 6-2 1-1h8l17 5 1 1v16l-4 10-7 7 1 9 1 8-2-3-4-12v-4l6-3 4-6 3-21-17-3v-2l-5 1-8 5h-5l-1-8h-20l-4 4v4h-7l-2-2-1-7h-18l-1 7-1 1h-5l-6-7-22-1-1 9-5-1-7-4-3 1-17 3-1 2v9l2 7 6 11-4-2-5-8-2-13 2-8 18-5 7 1 7 2 2-5 2-1 21-1 7 8 3 1 1-8z" fill="#169A90"/>
<path transform="translate(1011,580)" d="m0 0h30l34 2h22l-2 1v2l8 1 23 5 11 2 15 6v1l-10 2-2-4-16-4-30-7-20-2-18-1h-54l-32 2-25 5-21 5-8 2-1 3-8-2 4-2 7-3 10-3 37-7 6-1z" fill="#1A6439"/>
<path transform="translate(1289,434)" d="m0 0 4 1 4 2 5 3-1 5-5 5-8-1-8 1-2 9h-2v2h-2v5l5 2v5l-4 2-9-1-2-5-1-1v-5l5-6h5l-5-2-2-3v-6l7-6 4-1 3 5 1 4 1-8z" fill="#F0C629"/>
<path transform="translate(1037,344)" d="m0 0h39l9 1v2l10 1 7 3 1 1v5l-21-1-10-2-35-2-3-3 1-4z" fill="#DAAC16"/>
<path transform="translate(1022,461)" d="m0 0h31l24 1 11 1v1h-43l-27 1-11 1-4 1v3h3v2l2 1-56-4 1-3 45-4z" fill="#B59023"/>
<path transform="translate(1015,577)" d="m0 0h29l32 2 14 2 2 2h-17l-34-2h-30l-40 3-21 4-22 4h-5l2-3 23-5 33-5z" fill="#061412"/>
<path transform="translate(1218,301)" d="m0 0 16 1 1 6-12 15-1 3-12 2-8-7 2-6 4-6 6 2 6 10 2 1-6-10v-8z" fill="#F3C92A"/>
<path transform="translate(1123,548)" d="m0 0 5 1 3 3 4 13v2h2l1-8 2-6h5v8l-4 15-3 6-4-2-3-5-4-13-4 13-1 2-5-1 1-8z" fill="#050807"/>
<path transform="translate(1057,368)" d="m0 0 15 1h4 10l17 4 6 4 1 5-24-1-8-1-4-3-1 1h-9l-5-2-4-6z" fill="#DFB015"/>
<path transform="translate(1251,397)" d="m0 0 5 3 2 5v11h-9l-7-3-1 3h-4l-1 2v-3l-7 1-3-3 1-2v-6l-1-4 10-3h5l4 4 5-3z" fill="#DFB015"/>
<path transform="translate(951,544)" d="m0 0h8l3 3 1 9 3 9 1 6-7 1-2-9h-8v11l-5 1-2-5-4-20 1-4zm-2 6-3 3 2 5 8-1 1-1v-5l-1-1z" fill="#050B09"/>
<path transform="translate(1076,540)" d="m0 0 15 2 5 3 2 2 1 9-3 10-3 3-3 1h-10l-7-2-1-3 3-23zm5 6-1 7v11l6 1 5-4 1-3v-9l-5-3z" fill="#050B09"/>
<path transform="translate(918,551)" d="m0 0 9 1 5 5 3 7v8l-4 6-5 3-8 1-5-3-5-6-2-5 1-9 5-6zm-2 6-3 3v9l4 6 7 1 4-4v-9l-3-5-1-1z" fill="#050F0D"/>
<path transform="translate(784,323)" d="m0 0h2l5 9 6 12 9 6 4 2 2-4 6 5v5l-3 3-13 1-4-5-7-14-11-8-4-4 1-5 4-2 3 1z" fill="#F4CA2B"/>
<path transform="translate(1155,558)" d="m0 0 7 1 13 4 1 5-5 1-11-3v3l10 5 1 3-1 2-15-3 1 5 12 4v7l-5-1-17-7z" fill="#040A09"/>
<path transform="translate(768,345)" d="m0 0 5 5 5 8 9 19 8 11 5 6-5 1-10-2-5-5-4-7-5-24-3-8z" fill="#1A6A43"/>
<path transform="translate(1098,152)" d="m0 0h3v12l17-9 5-1 29 7v3l-11-1-18-4v13l-14-1-11-2-1-1v-14z" fill="#4A341E"/>
<path transform="translate(946,369)" d="m0 0 4 1-1 13-3 12-3 14-2 6-5 5-3 1-1-5 2-15 3-12 3-7 3-9z" fill="#FBFDFD"/>
<path transform="translate(1044,537)" d="m0 0h5l1 5v18l1 1h6l3-22 5-1 1 1v16l-2 9-3 3-10 1-5-2-4-6v-13l1-9z" fill="#050B09"/>
<path transform="translate(1236,385)" d="m0 0h7l7 3 2 6-4 5-5 2-2-2-8 1-7 1 2 6-9-1-3-4-1-7 10-6h3l4 9v-8z" fill="#F2C92A"/>
<path transform="translate(1068,410)" d="m0 0h9l24 3 3 2 1 10-21-1-9-2-6-1z" fill="#F2C829"/>
<path transform="translate(1057,288)" d="m0 0h18l1 1 1 10 3 2-5-1-1-3v-7h-15l-1 7-2 2-15 1-4-3v-4l-3 1 3 6 5 2 20 3 10 3v1l-9-1-15-2-33-2-3-1v-2l3-2 9-1v-7l1-2h14l1 1v7h11l5-1z" fill="#DEAF15"/>
<path transform="translate(968,429)" d="m0 0h9l1 5-4 4-21 4-6 2-11 1 1-7 2-5 2-1 16-1z" fill="#DDAF15"/>
<path transform="translate(780,313)" d="m0 0h8l6 3 2 3-3 3-9 1v2h-3v-2l-3 1-2 3v10l-3 1-4-3-1-5 1-2-11 4-5-1-1-3 3-5 6-4h2l4 4 1-2v2l9-3 3-4z" fill="#E1B217"/>
<path transform="translate(951,481)" d="m0 0h20l15 4 14 5 1 4-14-3-13-3-16-1-36 5-6-1 1-2 15-3z" fill="#6FC3EA"/>
<path transform="translate(1067,147)" d="m0 0 33 4-2 1-1 2-26-2v14l-3 1-23-1-1-10 3-7h1v12l8-1 8-10z" fill="#483A24"/>
<path transform="translate(967,295)" d="m0 0h5v8l17-1 1 4-5 3-18 3h-10l-2-4v-10l2-2z" fill="#DFB015"/>
<path transform="translate(1169,624)" d="m0 0h21l16 3 23 8 9 4 1 5-5-1-20-8-19-5-5-1h-21l-9 2-1-3 2-3z" fill="#081411"/>
<path transform="translate(1020,472)" d="m0 0 43 2 19 3 3 3h-50l-16-2v-2l-6-2v-1z" fill="#B28F24"/>
<path transform="translate(1104,345)" d="m0 0 2 3 12 36 4 15 6 19 11 35 4 4 7 3 2 4-3 1-7-2 3-1h4l-5-2-7-2-6-17-4-13-3-10-1-6-5-12-4-16-4-12-2-8-1-6-3-9z" fill="#169A90"/>
<path transform="translate(894,559)" d="m0 0h3l1 4-5 3-7 2 1 4 12-2 1 1v5l-11 3 4 9v3l-6 1-8-20-2-6 5-3z" fill="#050D0C"/>
<path transform="translate(1056,356)" d="m0 0 30 2 4 3 1 6-1 1h-11l-21-2-3-1-1-6z" fill="#F0C526"/>
<path transform="translate(1090,290)" d="m0 0 4 1v2h7l10 3v10l-2 8h-9l-15-2v-1l18-1 2-2-4-9-6-3-2 7h-7l-10-4 1-3 6-1z" fill="#B38F24"/>
<path transform="translate(1063,381)" d="m0 0h9l2 1 17 2 6 2v6l-1 2h-14l-16-2v-3h-2z" fill="#EEC428"/>
<path transform="translate(897,622)" d="m0 0h1v9l-8-2-14-1-19 3-15 4-17 7-5 1 1-4 16-7 19-6 11-2h29z" fill="#061512"/>
<path transform="translate(971,399)" d="m0 0h10l1 5-7 3-16 3-13 2 1-8 4-4z" fill="#DFB015"/>
<path transform="translate(1013,537)" d="m0 0h23v6l-8 1v22h-6l-1-1-1-21-8-1v-5z" fill="#07100E"/>
<path transform="translate(1055,333)" d="m0 0h21l8 1 2 2v6l-1 1h-22l-7-1-2-8z" fill="#EFC528"/>
<path transform="translate(1067,395)" d="m0 0h9l3 2 2 7 1 3 7 1 30 1v-3h2l1 6h-21v1l-17-1-9-2 1-3h-8l-1-1-1-8z" fill="#B38F24"/>
<path transform="translate(1036,319)" d="m0 0h23l7 1 1 6-1 3h-15l-14-1-2-1v-7z" fill="#DFB015"/>
<path transform="translate(979,330)" d="m0 0m-1 1m-16-6h6l1 5v2l2-3v4l7-1 22-2-1 2-17 2-2 8-1-4h-2v-2l-7 2-2 7 29-3h17l-3 2-12 1-4 1-16 1-13 2-4 6-1-3 2-10 4-13-5-3z" fill="#AE8A23"/>
<path transform="translate(984,539)" d="m0 0h9l-1 5-8 1 2 12v11l-5 1-3-16v-7h-9l-1-2 1-2z" fill="#050C0A"/>
<path transform="translate(992,412)" d="m0 0 5 1v5l-4 2-19 3-9 2-3-1v-6l2-3 25-2z" fill="#DFB015"/>
<path transform="translate(820,320)" d="m0 0h6l1 1v10h-2l-2 5-4 9 1 5-1 3-5-2-2-2 1-4 2-9-1-8-2-2 6-5z" fill="#F1C628"/>
<path transform="translate(1072,346)" d="m0 0h13l16 4 2 2v5l-21-1-9-3z" fill="#F3C82A"/>
<path transform="translate(879,603)" d="m0 0 3 1 1 1h5l1 5-3 2 5 2-1 2h-8l-5 1-19-3v-2l15-6z" fill="#44311D"/>
<path transform="translate(971,372)" d="m0 0h16v4l-10 5-21 3-1-3 3-6z" fill="#DFB015"/>
<path transform="translate(1086,427)" d="m0 0 17 1v2l5 2 3 2-2 4-7 1h-14l-2-4z" fill="#F2C729"/>
<path transform="translate(1239,310)" d="m0 0 5 1 4 6v5l-4 3-5 1-3 3-4-1-4-8 8-9z" fill="#EAC027"/>
<path transform="translate(1022,332)" d="m0 0h26l2 2-1 6h-28l-3-2 1-5z" fill="#E0B216"/>
<path transform="translate(1208,309)" d="m0 0 6 2 6 10 2 1v4l-12 2-8-7 2-6z" fill="#F1C729"/>
<path transform="translate(1107,444)" d="m0 0 14 2 12 2 3 5 1 3-6 1-16-2-2-1h-6l3-2v-5l-3-1z" fill="#B38F24"/>
<path transform="translate(1028,356)" d="m0 0h21l2 1v7l-5 1-10-2h-17l-2-4 2-2z" fill="#DFB015"/>
<path transform="translate(962,360)" d="m0 0h11l4 3v-2l2-1h8l4 2-5 4-4 2h-5l-2-2-3 3-12 2-1-5z" fill="#DFB015"/>
<path transform="translate(1103,429)" d="m0 0 7 1 14 3 4 4-1 5-4 1-14-2-13-1v-1l13-2 1-3-7-4z" fill="#DFB015"/>
<path transform="translate(1108,545)" d="m0 0h5l1 5-4 24-2 1-5-2 2-16z" fill="#050C0A"/>
<path transform="translate(811,348)" d="m0 0 7 5v5l-3 3-13 1-4-5-2-5 6 1 1-4 4 2 3 1z" fill="#19714D"/>
<path transform="translate(1e3 538)" d="m0 0h6l1 13v16h-6l-1-2-1-25z" fill="#040B09"/>
<path transform="translate(1094,295)" d="m0 0 7 3 3 4 2 7-3 2h-25l-5-1v-1l18-1 2-3-6-1v-1l6-1z" fill="#DCAE15"/>
<path transform="translate(1075,442)" d="m0 0h13l15 2 5 4v2l-23-1-10-2-1-4z" fill="#F2C829"/>
<path transform="translate(1082,396)" d="m0 0 10 2 8 3 3 3-1 2-7 2h-13l-1-1v-10z" fill="#F2C729"/>
<path transform="translate(986,347)" d="m0 0h6l-1 5-19 5h-9l1-5 4-3z" fill="#DFB015"/>
<path transform="translate(1069,424)" d="m0 0h9l5 2v12h-8l-6-2z" fill="#E6BC26"/>
<path transform="translate(1070,321)" d="m0 0 18 1 1 3 5 1v5l-24-1z" fill="#F0C629"/>
<path transform="translate(1302,449)" d="m0 0h6l2 8 1 5-6 3h-8l-4-3 3-1 1-2h2v-6l-4-1z" fill="#F4CA2B"/>
<path transform="translate(1076,369)" d="m0 0h10v2l7 1 5 2-1 5-2 1-14-1-5-3z" fill="#F2C829"/>
<path transform="translate(946,416)" d="m0 0h12l1 5-3 5-11 3h-4l1-8 2-4z" fill="#E1B217"/>
<path transform="translate(1024,344)" d="m0 0 8 1-1 5-7 2-20-1-3-1-1-3 4-2z" fill="#DFB015"/>
<path transform="translate(1251,397)" d="m0 0 5 3 2 5v11h-9l-4-2h-4v-2l6-2 1-2h2v-2h-2v-2l-3-2 5-3z" fill="#EFC528"/>
<path transform="translate(930,156)" d="m0 0 1 2h5l-4 2-19 4-2 3v22l-2-2-3-7v-18l16-4z" fill="#453D28"/>
<path transform="translate(981,436)" d="m0 0h2l1 2 8 1-2 2-34 5-4 1h-17l2-2 15-3 25-3 3-1z" fill="#4F311A"/>
<path transform="translate(961,348)" d="m0 0 1 4-5 20-8 22-12 40h-2l1-7 13-40 8-27z" fill="#169A90"/>
<path transform="translate(812,600)" d="m0 0h9l16 2 6 4v2l-3 1-8-2-21-2-2-1v-3z" fill="#08120F"/>
<path transform="translate(1135,476)" d="m0 0h7v3l3 2-21 4-8 4h-4l2-4 7-5z" fill="#71C3EA"/>
<path transform="translate(1030,476)" d="m0 0 24 1h15l16 2v1h-50l-16-2v-1z" fill="#314928"/>
<path transform="translate(959,386)" d="m0 0h9l-1 8-6 3h-10l1-7 2-3z" fill="#DFB015"/>
<path transform="translate(1245,600)" d="m0 0 4 2-1 3-22 2-9 2-2-1 1-3 7-3z" fill="#07100E"/>
<path transform="translate(1014,277)" d="m0 0h9v2l4-1 3 2-8 3-2 11-4-1-2-3-2-7-2-3z" fill="#A6D5EE"/>
<path transform="translate(1067,395)" d="m0 0h9l3 2 1 9-1 1h-11l-1-1-1-8z" fill="#EFC426"/>
<path transform="translate(1046,345)" d="m0 0h24l-1 7h-9l-15-3-2-3z" fill="#F3C92A"/>
<path transform="translate(776,294)" d="m0 0 4 2 1 3v9l-2 3-4-2-7-2 1-6z" fill="#B6942E"/>
<path transform="translate(1294,465)" d="m0 0 5 5 1 5-6 5-6 1-4-3-1-7 2-3 1 4h7z" fill="#F2C729"/>
<path transform="translate(1072,441)" d="m0 0h7l-4 2v3l10 2 23 2-4-5 6 1 1 1v5l-1 1h-10l-26-3v-2h-2l-1-5z" fill="#CFA41A"/>
<path transform="translate(1057,368)" d="m0 0 15 1 1 1v5l-2 2h-11l-5-7z" fill="#F0C527"/>
<path transform="translate(965,341)" d="m0 0h1v5l31-4h17l-3 2-12 1-4 1-16 1-13 2-4 6-1-3z" fill="#4F311A"/>
<path transform="translate(988,288)" d="m0 0h1v13l-15 1-1-4-1-5-1-2 6 1 10 5v-7z" fill="#4D3019"/>
<path transform="translate(1046,321)" d="m0 0h19l2 5-3 1h-10l-13-1-1-3z" fill="#F3C92A"/>
<path transform="translate(1095,583)" d="m0 0h9l24 5 7 2-1 2h-8l-31-7z" fill="#070F0D"/>
<path transform="translate(948,483)" d="m0 0h27l7 3v1h-34l-12 1 2-2z" fill="#C6E4F4"/>
<path transform="translate(987,323)" d="m0 0h4l-1 5-11 3-5 2h-3v-7l4-2z" fill="#DDAE15"/>
<path transform="translate(940,425)" d="m0 0 1 4 14-3v2l-4 1 9-1h9l-1 2-11 2-18 1-2 8h-2l2-10 2-5z" fill="#B38F24"/>
<path transform="translate(780,313)" d="m0 0h8l6 3 2 3-3 3-3 1h-8l-1-4z" fill="#B89632"/>
<path transform="translate(1090,290)" d="m0 0 4 1-2 11h-7l-9-3 1-3 6-1z" fill="#4C2F19"/>
<path transform="translate(1089,336)" d="m0 0h7l2 5h2l1 4-5 1-17-2v-1l6-1 2-3z" fill="#D5A818"/>
<path transform="translate(1023,287)" d="m0 0h18l1 1 1 7 1 1 7 1v1h-9l-2-1-1-7-14-1v2l-3 1zm32 1h2v6l-1 2-5 1-1-4z" fill="#AC8823"/>
<path transform="translate(1096,441)" d="m0 0h10l17 2h10l1 6-22-3-16-4z" fill="#4F311A"/>
<path transform="translate(752,306)" d="m0 0h7l5 3-3 9-5-2-5-5-1-4z" fill="#BB9C3E"/>
<path transform="translate(945,588)" d="m0 0m-5 1h5v2l-21 5-8 2-1 3-8-2 4-2 7-3 10-3z" fill="#1B653B"/>
<path transform="translate(759,320)" d="m0 0h2l3 5 3 3-5 3-8 1-2-4 3-5z" fill="#BD9D3F"/>
<path transform="translate(1023,320)" d="m0 0h8l1 3-2 4-17-1 1-4z" fill="#DFB015"/>
<path transform="translate(990,423)" d="m0 0h2v2l-8 1-1 8h-1l-1-6h-12l-15 2h-8v-1l12-3z" fill="#4F311A"/>
<path transform="translate(1044,278)" d="m0 0h9l1 5-6 9-3-1-2-12z" fill="#A6D5EE"/>
<path transform="translate(1109,416)" d="m0 0 8 1 5 4 1 4-8 1-5-2z" fill="#DFB015"/>
<path transform="translate(1093,348)" d="m0 0 8 2 2 2v5l-21-1-4-2 15-1z" fill="#DCAD15"/>
<path transform="translate(936,485)" d="m0 0h5l-3 2 10-1h10v1l-36 5-6-1 1-2 15-3z" fill="#67C0EA"/>
<path transform="translate(1088,493)" d="m0 0h9l8 4-2 2h-18l-2-1 1-3z" fill="#3FB7E9"/>
<path transform="translate(971,385)" d="m0 0h15l-1 4-9 4-5-1z" fill="#DFB015"/>
<path transform="translate(986,405)" d="m0 0 1 3h3v2l-10 2-13 1-7 2-8-2v-1l12-2 18-1z" fill="#4F311A"/>
<path transform="translate(943,448)" d="m0 0h7l-1 5-8 2h-7l1-5 1-1z" fill="#DFB015"/>
<path transform="translate(1099,386)" d="m0 0h6l6 4v4l-1 1h-6l-4-4z" fill="#DFB015"/>
<path transform="translate(922,461)" d="m0 0h3v2l-2 1-1 3h9l4 2-10 1h-10l1-6z" fill="#010101"/>
<path transform="translate(971,336)" d="m0 0h6v8l-2 1h-7l1-7z" fill="#DFB015"/>
<path transform="translate(871,607)" d="m0 0 4 1-4 2v2l6 2v1h-12l-7-1v-2z" fill="#0B1915"/>
<path transform="translate(1107,424)" d="m0 0 9 3 10 2-1 2-22-3-13-2v-1h16z" fill="#4F311A"/>
<path transform="translate(983,336)" d="m0 0h10l-2 6-3 1h-7l1-6z" fill="#DFB015"/>
<path transform="translate(1123,156)" d="m0 0h8l21 5v3h-6l-3-2-11-3-9-1z" fill="#111D17"/>
<path transform="translate(1122,410)" d="m0 0 3 4-2 2-10-2h-6l-1 2-1-3-8-1v-1h17l8 1z" fill="#4F311A"/>
<path transform="translate(1093,385)" d="m0 0 4 1v6l-1 2h-14l-10-1v-1l19-1 3-1z" fill="#DFB015"/>
<path transform="translate(1101,345)" d="m0 0h3l5 16v3h-2l-1-4-18-2v-1h16l-1-6-3-3z" fill="#492D18"/>
<path transform="translate(1104,445)" d="m0 0 6 1 1 1v5l-1 1h-10l-7-2v-2l15 1z" fill="#DAAC16"/>
<path transform="translate(1095,361)" d="m0 0h7l2 1 1 5-1 1h-8l-2-5z" fill="#DFB015"/>
<path transform="translate(1e3 334)" d="m0 0h5l2 2v3l-5 1h-7l-1-3 1-2z" fill="#DFB015"/>
<path transform="translate(1066,406)" d="m0 0 10 1-1 3h-7l1 11 13 1v1h-10l-4-1-1-3z" fill="#AD8820"/>
<path transform="translate(1057,288)" d="m0 0h18l1 1 1 10 3 2-5-1-1-3v-7h-15l-1 7-1 1h-6l1-2h4z" fill="#B38F24"/>
<path transform="translate(911,165)" d="m0 0h1l1 21h6l-1 4h-5l-2-2-1-11v-10z" fill="#B38F24"/>
<path transform="translate(930,156)" d="m0 0 1 2h5l-4 2-16 3-3-1v-2z" fill="#453B27"/>
<path transform="translate(1007,288)" d="m0 0 4 1 5 6v2h-8l-1-1z" fill="#492D18"/>
<path transform="translate(920,460)" d="m0 0h5l-3 2-5 2-1 5 17 1v1l-21 1 1-6 5-5z" fill="#364928"/>
<path transform="translate(1085,346)" d="m0 0 15 1 4 4 1 6-1 1-16-1v-1h10l5 1-2-6-16-4z" fill="#B38F24"/>
<path transform="translate(1160,469)" d="m0 0 11 1 13 4 6 3 1-2 1 4-7-1-13-5-12-3z" fill="#41B7E9"/>
<path transform="translate(769,328)" d="m0 0 5 1 2 4-1 5-5-2-2-6z" fill="#BE9F44"/>
<path transform="translate(1096,413)" d="m0 0 7 1 2 5v6l-21-1v-1h18v-6l-6-3z" fill="#DAAC16"/>
<path transform="translate(1075,370)" d="m0 0h1l2 7 11 2v2l-11-1-4-3-1 1h-9v-1l7-1 2-5z" fill="#D7AA17"/>
<path transform="translate(996,330)" d="m0 0 4 1-7 2-11 1-2 8-2-4-1-5 8-2z" fill="#4F311A"/>
<path transform="translate(995,353)" d="m0 0 6 2-4 2-19 1 2-2 13-2z" fill="#4F311A"/>
<path transform="translate(797,345)" d="m0 0 5 2 2 2-2 4-6-1-1-5z" fill="#E1B31B"/>
<path transform="translate(1066,320)" d="m0 0h11l6 1v1h-11l-2-1v9h-1v-5l-3-1z" fill="#B99321"/>
<path transform="translate(962,325)" d="m0 0h6l1 5-5 16-2 2 1-6 4-13-5-3z" fill="#169A90"/>
<path transform="translate(1055,288)" d="m0 0h2v6l-1 2h-6l1-4z" fill="#352111"/>
<path transform="translate(1014,286)" d="m0 0 3 1 4-1-1 8-4-1-2-3z" fill="#BFE0F2"/>
<path transform="translate(1045,284)" d="m0 0 7 1-2 4-2 3-3-1z" fill="#BADDF1"/>
<path transform="translate(1186,608)" d="m0 0 6 1 8 4v1l-11-1-1-3z" fill="#0C1713"/>
<path transform="translate(1150,465)" d="m0 0 2 2-4 2-12 2h-8v-1l21-4z" fill="#1C6238"/>
<path transform="translate(1086,359)" d="m0 0 4 2 1 6-1 1h-11v-1l8-2z" fill="#DFB015"/>
<path transform="translate(981,337)" d="m0 0 1 3-1 3 8-1v2l-14 1 2-1v-6z" fill="#B38F24"/>
<path transform="translate(1068,325)" d="m0 0h1l1 5 17 2v1h-11l-9-1v-3z" fill="#4F311A"/>
<path transform="translate(778,325)" d="m0 0 2 1v3l2 1 1 4h-4l-3-3 1-5z" fill="#E3B519"/>
<path transform="translate(979,381)" d="m0 0m-9 1h9l-1 2-7 1h-9l2-2z" fill="#4F311A"/>
<path transform="translate(955,354)" d="m0 0h2l-1 7-4 2-1-4z" fill="#FEFEFE"/>
<path transform="translate(1211,301)" d="m0 0 4 1-1 5h-5l-1-3z" fill="#F4CA2B"/>
<path transform="translate(957,300)" d="m0 0 3 1 1 7-5-1v-6z" fill="#F4CA2B"/>
<path transform="translate(1147,464)" d="m0 0 3 1-1 2-18 3v-2l15-3z" fill="#030201"/>
<path transform="translate(812,347)" d="m0 0 7 1 1 2-1 3-5-2z" fill="#DEB017"/>
<path transform="translate(993,488)" d="m0 0 7 2 1 4-10-2 3-2z" fill="#3DB5E5"/>
<path transform="translate(924,488)" d="m0 0 4 1 3 2-9 1-6-1 1-2z" fill="#3FB7E9"/>
<path transform="translate(972,483)" d="m0 0 9 2 1 2-14-1z" fill="#B8DCF0"/>
<path transform="translate(949,383)" d="m0 0 1 4-4 12-1-4 3-11z" fill="#BFDFF1"/>
<path transform="translate(1070,346)" d="m0 0h2l1 7 2 1-8-1 2-1z" fill="#DFB015"/>
<path transform="translate(1143,160)" d="m0 0 9 1v3h-6l-3-2z" fill="#0E130F"/>
<path transform="translate(1221,391)" d="m0 0 2 1-3 6h-4l-1-3z" fill="#D9AB18"/>
<path transform="translate(1042,358)" d="m0 0h5l1 4h-6l-2-3z" fill="#F4CA2B"/>
<path transform="translate(1237,302)" d="m0 0 5 1v4l-5-1z" fill="#F4CA2B"/>
<path transform="translate(854,579)" d="m0 0h4l-1 2-5 1v-2z" fill="#1B9085"/>
<path transform="translate(829,623)" d="m0 0v3l-3 3 2-5z" fill="#224439"/>
<path transform="translate(1228,622)" d="m0 0 4 4-1 2-3-4z" fill="#155B53"/>
<path transform="translate(1232,628)" d="m0 0 3 3-1 2z" fill="#267C6E"/>
<path transform="translate(1220,611)" d="m0 0 3 2-1 2z" fill="#326555"/>
<path transform="translate(831,620)" d="m0 0v3z" fill="#1F594E"/>
<path transform="translate(1226,619)" d="m0 0 2 1-1 2z" fill="#1F594E"/>
<path transform="translate(833,617)" d="m0 0v3z" fill="#326555"/>
<path transform="translate(1223,615)" d="m0 0 2 1-1 2z" fill="#326555"/>
<path transform="translate(836,613)" d="m0 0v3z" fill="#169A90"/>
<path transform="translate(808,365)" d="m0 0 1 4z" fill="#50B3AB"/>
<path transform="translate(1236,635)" d="m0 0" fill="#169A90"/>
<path transform="translate(822,634)" d="m0 0" fill="#169A90"/>
<path transform="translate(1235,633)" d="m0 0" fill="#169A90"/>
<path transform="translate(823,632)" d="m0 0" fill="#4F311A"/>
<path transform="translate(825,629)" d="m0 0" fill="#28190D"/>
<path transform="translate(839,609)" d="m0 0" fill="#169A90"/>
<path transform="translate(1241,379)" d="m0 0" fill="#169A90"/>
<path transform="translate(824,631)" d="m0 0" fill="#4F311A"/>
<path transform="translate(1225,618)" d="m0 0" fill="#4F311A"/>
<path transform="translate(834,616)" d="m0 0" fill="#4F311A"/>
<path transform="translate(837,612)" d="m0 0" fill="#169A90"/>
<path transform="translate(838,611)" d="m0 0" fill="#169A90"/>
<path transform="translate(1219,610)" d="m0 0" fill="#169A90"/>
<path transform="translate(1242,381)" d="m0 0" fill="#169A90"/>
<path transform="translate(1240,377)" d="m0 0" fill="#169A90"/>
</svg>
